<?xml version="1.0" encoding="UTF-8" standalone="no"?>
<!DOCTYPE svg PUBLIC "-//W3C//DTD SVG 1.1//EN" "http://www.w3.org/Graphics/SVG/1.1/DTD/svg11.dtd">
<svg width="100%" height="100%" viewBox="0 0 2259 891" version="1.1" xmlns="http://www.w3.org/2000/svg" xmlns:xlink="http://www.w3.org/1999/xlink" xml:space="preserve" xmlns:serif="http://www.serif.com/" style="fill-rule:evenodd;clip-rule:evenodd;stroke-linejoin:round;stroke-miterlimit:2;">
    <g transform="matrix(1,0,0,1,-1644.87,-2359.15)">
        <g id="Artboard1" transform="matrix(0.945786,0,0,0.533896,1644.87,2359.15)">
            <rect x="0" y="0" width="2388" height="1668" style="fill:none;"/>
            <g id="DesignCrony" transform="matrix(1.16546,0,0,1.29167,-221.623,-250.51)">
                <g transform="matrix(3.1678,0,0,5.06338,-2798.48,-5232.79)">
                    <path d="M985.114,1140.89C984.825,1140.83 984.552,1140.73 984.299,1140.6C984.251,1140.58 984.203,1140.55 984.156,1140.53L955.862,1125.39C954.836,1124.84 954.217,1123.9 954.217,1122.9C954.217,1121.89 954.836,1120.95 955.862,1120.4L984.12,1105.29C984.189,1105.25 984.258,1105.21 984.329,1105.18C984.577,1105.05 984.84,1104.96 985.114,1104.9L985.114,1104.83L985.782,1104.83C985.804,1104.83 1117.74,1104.83 1117.74,1104.83L1117.74,1097.78C1117.74,1096.86 1118.1,1095.99 1118.75,1095.34C1119.4,1094.69 1120.28,1094.32 1121.2,1094.32L1137.43,1094.32C1138.35,1094.32 1139.23,1094.69 1139.88,1095.34C1140.53,1095.99 1140.89,1096.86 1140.89,1097.78L1140.89,1099.63L1171.28,1099.63C1175.36,1099.63 1178.68,1102.92 1178.72,1106.99C1178.72,1107.02 1178.72,1107.05 1178.72,1107.08L1178.72,1112.18C1178.72,1112.21 1178.72,1112.24 1178.72,1112.28L1178.72,1133.52C1178.72,1137.63 1175.39,1140.96 1171.28,1140.96L1143.1,1140.96L996.981,1140.96L988.052,1140.96L985.897,1140.96L985.849,1140.96C985.819,1140.96 985.788,1140.96 985.758,1140.96L985.114,1140.96L985.114,1140.89ZM1167.65,1161.04C1170.59,1161.04 1173.4,1162.2 1175.48,1164.28C1177.56,1166.36 1178.72,1169.17 1178.72,1172.11L1178.72,1236.09C1178.72,1265.79 1154.64,1289.87 1124.94,1289.87L996.187,1289.87C993.25,1289.87 990.434,1288.71 988.357,1286.63C986.281,1284.56 985.114,1281.74 985.114,1278.8L985.114,1172.11C985.114,1169.17 986.281,1166.36 988.357,1164.28C990.434,1162.2 993.25,1161.04 996.187,1161.04L1167.65,1161.04ZM1125.02,1190.43C1109.45,1190.43 1096.81,1203.07 1096.81,1218.64C1096.81,1234.21 1109.45,1246.85 1125.02,1246.85C1140.59,1246.85 1153.23,1234.21 1153.23,1218.64C1153.23,1203.07 1140.59,1190.43 1125.02,1190.43ZM1144.37,1220.53C1143.42,1230.38 1135.12,1238.09 1125.02,1238.09C1114.29,1238.09 1105.58,1229.37 1105.58,1218.64C1105.58,1207.91 1114.29,1199.2 1125.02,1199.2C1130.73,1199.2 1135.86,1201.66 1139.42,1205.59C1139.4,1205.58 1139.39,1205.58 1139.37,1205.58C1134.79,1205.58 1131.06,1209.31 1131.06,1213.89C1131.06,1218.48 1134.79,1222.2 1139.37,1222.2C1141.25,1222.2 1142.98,1221.58 1144.37,1220.53ZM1051.49,1187.2C1032.47,1187.2 1017.03,1202.64 1017.03,1221.66C1017.03,1240.68 1032.47,1256.12 1051.49,1256.12C1070.51,1256.12 1085.95,1240.68 1085.95,1221.66C1085.95,1202.64 1070.51,1187.2 1051.49,1187.2ZM1075.07,1224.55C1073.64,1236.3 1063.62,1245.41 1051.49,1245.41C1038.38,1245.41 1027.74,1234.77 1027.74,1221.66C1027.74,1208.55 1038.38,1197.91 1051.49,1197.91C1058.62,1197.91 1065.01,1201.05 1069.37,1206.02L1069.34,1206.02C1063.74,1206.02 1059.19,1210.57 1059.19,1216.17C1059.19,1221.78 1063.74,1226.32 1069.34,1226.32C1071.46,1226.32 1073.44,1225.67 1075.07,1224.55Z"/>
                </g>
                <g transform="matrix(326.381,0,0,517.392,1055.21,766.522)">
                    <path d="M0.088,-0L0.088,-0.7L0.381,-0.7C0.432,-0.7 0.479,-0.692 0.522,-0.675C0.565,-0.658 0.602,-0.633 0.633,-0.602C0.664,-0.571 0.687,-0.534 0.704,-0.491C0.721,-0.448 0.729,-0.401 0.729,-0.35C0.729,-0.299 0.721,-0.252 0.704,-0.209C0.687,-0.166 0.664,-0.129 0.633,-0.098C0.602,-0.067 0.565,-0.043 0.522,-0.026C0.479,-0.009 0.432,-0 0.381,-0L0.088,-0ZM0.258,-0.116L0.235,-0.15L0.376,-0.15C0.404,-0.15 0.429,-0.155 0.451,-0.165C0.473,-0.174 0.492,-0.188 0.508,-0.205C0.523,-0.222 0.535,-0.243 0.544,-0.268C0.553,-0.293 0.557,-0.32 0.557,-0.35C0.557,-0.38 0.553,-0.407 0.544,-0.432C0.535,-0.457 0.523,-0.478 0.508,-0.495C0.492,-0.512 0.473,-0.526 0.451,-0.536C0.429,-0.545 0.404,-0.55 0.376,-0.55L0.232,-0.55L0.258,-0.582L0.258,-0.116Z" style="fill-rule:nonzero;"/>
                </g>
                <g transform="matrix(326.381,0,0,517.392,1301.91,766.522)">
                    <path d="M0.324,0.01C0.265,0.01 0.214,-0.002 0.171,-0.026C0.128,-0.049 0.094,-0.082 0.07,-0.123C0.046,-0.164 0.034,-0.21 0.034,-0.263C0.034,-0.304 0.041,-0.341 0.054,-0.375C0.067,-0.409 0.086,-0.439 0.11,-0.464C0.134,-0.489 0.163,-0.508 0.196,-0.522C0.229,-0.535 0.265,-0.542 0.304,-0.542C0.341,-0.542 0.376,-0.535 0.407,-0.522C0.438,-0.509 0.464,-0.49 0.487,-0.466C0.51,-0.442 0.527,-0.414 0.539,-0.381C0.551,-0.348 0.556,-0.313 0.555,-0.274L0.554,-0.231L0.131,-0.231L0.108,-0.321L0.424,-0.321L0.407,-0.302L0.407,-0.322C0.406,-0.339 0.401,-0.354 0.392,-0.367C0.383,-0.38 0.371,-0.39 0.356,-0.397C0.341,-0.404 0.325,-0.408 0.306,-0.408C0.28,-0.408 0.258,-0.403 0.24,-0.393C0.221,-0.382 0.207,-0.367 0.198,-0.348C0.189,-0.328 0.184,-0.304 0.184,-0.275C0.184,-0.246 0.19,-0.22 0.203,-0.199C0.215,-0.177 0.233,-0.16 0.257,-0.148C0.28,-0.136 0.308,-0.13 0.341,-0.13C0.364,-0.13 0.384,-0.133 0.402,-0.14C0.419,-0.147 0.438,-0.158 0.459,-0.174L0.534,-0.068C0.513,-0.05 0.491,-0.035 0.468,-0.024C0.445,-0.013 0.421,-0.004 0.397,0.002C0.372,0.007 0.348,0.01 0.324,0.01Z" style="fill-rule:nonzero;"/>
                </g>
                <g transform="matrix(326.381,0,0,517.392,1498.63,766.522)">
                    <path d="M0.25,0.01C0.198,0.01 0.152,0.002 0.113,-0.015C0.073,-0.032 0.041,-0.054 0.018,-0.082L0.115,-0.166C0.136,-0.145 0.159,-0.13 0.185,-0.121C0.211,-0.111 0.236,-0.106 0.259,-0.106C0.268,-0.106 0.277,-0.107 0.284,-0.109C0.291,-0.111 0.298,-0.114 0.303,-0.118C0.308,-0.121 0.311,-0.126 0.314,-0.131C0.317,-0.136 0.318,-0.141 0.318,-0.148C0.318,-0.161 0.312,-0.172 0.3,-0.179C0.294,-0.182 0.284,-0.186 0.27,-0.191C0.256,-0.196 0.238,-0.201 0.216,-0.207C0.185,-0.215 0.158,-0.225 0.135,-0.236C0.112,-0.247 0.093,-0.259 0.078,-0.274C0.065,-0.288 0.054,-0.304 0.047,-0.321C0.04,-0.338 0.036,-0.357 0.036,-0.378C0.036,-0.403 0.042,-0.425 0.054,-0.445C0.065,-0.465 0.081,-0.482 0.101,-0.497C0.12,-0.512 0.143,-0.523 0.169,-0.531C0.194,-0.538 0.221,-0.542 0.248,-0.542C0.277,-0.542 0.305,-0.539 0.332,-0.532C0.359,-0.525 0.384,-0.516 0.407,-0.504C0.43,-0.492 0.45,-0.478 0.468,-0.461L0.384,-0.367C0.372,-0.378 0.359,-0.389 0.344,-0.398C0.329,-0.407 0.313,-0.414 0.297,-0.419C0.281,-0.424 0.266,-0.427 0.253,-0.427C0.243,-0.427 0.234,-0.426 0.227,-0.425C0.219,-0.423 0.212,-0.42 0.207,-0.417C0.202,-0.413 0.198,-0.409 0.195,-0.404C0.192,-0.399 0.191,-0.393 0.191,-0.386C0.191,-0.379 0.193,-0.373 0.197,-0.367C0.2,-0.361 0.205,-0.356 0.212,-0.352C0.219,-0.348 0.229,-0.343 0.244,-0.339C0.259,-0.334 0.279,-0.327 0.304,-0.32C0.335,-0.311 0.362,-0.302 0.385,-0.291C0.408,-0.28 0.426,-0.268 0.439,-0.253C0.45,-0.242 0.458,-0.229 0.463,-0.214C0.468,-0.199 0.471,-0.182 0.471,-0.165C0.471,-0.131 0.462,-0.101 0.443,-0.075C0.424,-0.048 0.397,-0.028 0.364,-0.013C0.331,0.003 0.293,0.01 0.25,0.01Z" style="fill-rule:nonzero;"/>
                </g>
                <g transform="matrix(326.381,0,0,517.392,1662.97,766.522)">
                    <path d="M0.08,-0L0.08,-0.531L0.24,-0.531L0.24,-0L0.08,-0ZM0.16,-0.636C0.13,-0.636 0.107,-0.643 0.09,-0.658C0.073,-0.672 0.064,-0.692 0.064,-0.719C0.064,-0.743 0.073,-0.763 0.09,-0.778C0.107,-0.793 0.131,-0.801 0.16,-0.801C0.19,-0.801 0.213,-0.794 0.23,-0.78C0.247,-0.765 0.255,-0.745 0.255,-0.719C0.255,-0.694 0.247,-0.674 0.23,-0.659C0.213,-0.644 0.189,-0.636 0.16,-0.636Z" style="fill-rule:nonzero;"/>
                </g>
                <g transform="matrix(326.381,0,0,517.392,1767.36,766.522)">
                    <path d="M0.314,0.23C0.271,0.23 0.228,0.224 0.185,0.211C0.141,0.198 0.107,0.182 0.08,0.162L0.136,0.05C0.15,0.059 0.166,0.068 0.183,0.075C0.2,0.082 0.217,0.087 0.236,0.091C0.255,0.095 0.274,0.097 0.293,0.097C0.327,0.097 0.355,0.092 0.376,0.082C0.397,0.072 0.413,0.057 0.424,0.037C0.435,0.016 0.44,-0.009 0.44,-0.04L0.44,-0.129L0.471,-0.124C0.466,-0.102 0.455,-0.082 0.437,-0.064C0.418,-0.046 0.396,-0.032 0.369,-0.021C0.342,-0.01 0.314,-0.004 0.284,-0.004C0.236,-0.004 0.193,-0.015 0.156,-0.038C0.118,-0.06 0.088,-0.091 0.067,-0.131C0.045,-0.17 0.034,-0.216 0.034,-0.268C0.034,-0.321 0.045,-0.369 0.066,-0.41C0.087,-0.451 0.117,-0.483 0.154,-0.507C0.191,-0.53 0.233,-0.542 0.28,-0.542C0.3,-0.542 0.319,-0.54 0.338,-0.535C0.356,-0.53 0.373,-0.524 0.389,-0.517C0.404,-0.509 0.418,-0.5 0.431,-0.49C0.443,-0.479 0.453,-0.468 0.461,-0.456C0.468,-0.444 0.473,-0.432 0.476,-0.419L0.443,-0.411L0.449,-0.531L0.601,-0.531L0.601,-0.043C0.601,0 0.595,0.039 0.582,0.073C0.569,0.106 0.55,0.135 0.525,0.159C0.5,0.182 0.469,0.2 0.434,0.212C0.399,0.224 0.359,0.23 0.314,0.23ZM0.318,-0.128C0.344,-0.128 0.367,-0.134 0.386,-0.146C0.405,-0.157 0.419,-0.173 0.43,-0.194C0.44,-0.215 0.445,-0.239 0.445,-0.267C0.445,-0.295 0.44,-0.32 0.43,-0.341C0.419,-0.362 0.405,-0.378 0.386,-0.39C0.367,-0.401 0.344,-0.407 0.318,-0.407C0.293,-0.407 0.271,-0.401 0.252,-0.39C0.233,-0.378 0.219,-0.362 0.209,-0.341C0.198,-0.32 0.193,-0.295 0.193,-0.267C0.193,-0.239 0.198,-0.215 0.209,-0.194C0.219,-0.173 0.233,-0.157 0.252,-0.146C0.271,-0.134 0.293,-0.128 0.318,-0.128Z" style="fill-rule:nonzero;"/>
                </g>
                <g transform="matrix(326.381,0,0,517.392,1982.46,766.522)">
                    <path d="M0.071,-0L0.071,-0.531L0.223,-0.531L0.228,-0.423L0.196,-0.411C0.203,-0.435 0.217,-0.457 0.236,-0.477C0.255,-0.496 0.277,-0.512 0.304,-0.524C0.331,-0.536 0.359,-0.542 0.388,-0.542C0.428,-0.542 0.462,-0.534 0.489,-0.518C0.516,-0.501 0.537,-0.477 0.551,-0.445C0.565,-0.412 0.572,-0.373 0.572,-0.326L0.572,-0L0.411,-0L0.411,-0.313C0.411,-0.334 0.408,-0.352 0.402,-0.366C0.396,-0.38 0.387,-0.391 0.375,-0.398C0.362,-0.405 0.347,-0.408 0.329,-0.407C0.315,-0.407 0.302,-0.405 0.29,-0.401C0.278,-0.396 0.268,-0.39 0.259,-0.382C0.25,-0.373 0.244,-0.364 0.239,-0.353C0.234,-0.342 0.231,-0.331 0.231,-0.318L0.231,-0L0.071,-0Z" style="fill-rule:nonzero;"/>
                </g>
                <g transform="matrix(326.381,0,0,517.392,1069.9,1272.9)">
                    <path d="M0.406,0.01C0.353,0.01 0.305,0.001 0.261,-0.017C0.216,-0.034 0.178,-0.059 0.145,-0.092C0.112,-0.124 0.087,-0.162 0.07,-0.207C0.052,-0.251 0.043,-0.3 0.043,-0.353C0.043,-0.405 0.052,-0.453 0.071,-0.497C0.09,-0.541 0.116,-0.579 0.149,-0.612C0.182,-0.644 0.221,-0.669 0.266,-0.687C0.311,-0.705 0.36,-0.714 0.413,-0.714C0.446,-0.714 0.479,-0.71 0.511,-0.701C0.543,-0.692 0.573,-0.68 0.601,-0.663C0.628,-0.646 0.652,-0.625 0.672,-0.602L0.568,-0.483C0.554,-0.498 0.539,-0.51 0.524,-0.522C0.508,-0.533 0.491,-0.541 0.472,-0.547C0.453,-0.553 0.433,-0.556 0.412,-0.556C0.385,-0.556 0.36,-0.551 0.337,-0.542C0.313,-0.532 0.292,-0.518 0.275,-0.501C0.257,-0.483 0.243,-0.461 0.233,-0.436C0.223,-0.411 0.218,-0.382 0.218,-0.351C0.218,-0.32 0.223,-0.293 0.233,-0.268C0.243,-0.243 0.257,-0.221 0.275,-0.203C0.293,-0.185 0.315,-0.171 0.341,-0.162C0.366,-0.153 0.395,-0.148 0.426,-0.148C0.447,-0.148 0.468,-0.151 0.487,-0.157C0.506,-0.163 0.524,-0.171 0.541,-0.182C0.557,-0.192 0.571,-0.204 0.584,-0.217L0.666,-0.087C0.649,-0.068 0.627,-0.052 0.6,-0.037C0.572,-0.022 0.541,-0.011 0.508,-0.003C0.474,0.006 0.44,0.01 0.406,0.01Z" style="fill-rule:nonzero;"/>
                </g>
                <g transform="matrix(326.381,0,0,517.392,1299.38,1272.9)">
                    <path d="M0.071,-0L0.071,-0.531L0.223,-0.531L0.23,-0.358L0.2,-0.391C0.208,-0.42 0.221,-0.445 0.24,-0.468C0.258,-0.491 0.279,-0.509 0.304,-0.522C0.329,-0.535 0.355,-0.542 0.383,-0.542C0.395,-0.542 0.406,-0.541 0.417,-0.539C0.427,-0.537 0.436,-0.535 0.445,-0.532L0.401,-0.355C0.394,-0.36 0.384,-0.364 0.372,-0.367C0.359,-0.37 0.346,-0.371 0.333,-0.371C0.318,-0.371 0.305,-0.369 0.292,-0.364C0.279,-0.359 0.269,-0.351 0.26,-0.342C0.251,-0.333 0.245,-0.322 0.24,-0.309C0.235,-0.296 0.232,-0.282 0.232,-0.266L0.232,-0L0.071,-0Z" style="fill-rule:nonzero;"/>
                </g>
                <g transform="matrix(326.381,0,0,517.392,1443.45,1272.9)">
                    <path d="M0.321,0.01C0.266,0.01 0.217,-0.002 0.174,-0.026C0.131,-0.05 0.096,-0.083 0.072,-0.124C0.047,-0.165 0.034,-0.213 0.034,-0.266C0.034,-0.319 0.047,-0.367 0.072,-0.408C0.096,-0.449 0.131,-0.482 0.174,-0.506C0.217,-0.53 0.266,-0.542 0.321,-0.542C0.376,-0.542 0.426,-0.53 0.469,-0.506C0.511,-0.482 0.545,-0.449 0.57,-0.408C0.595,-0.367 0.607,-0.319 0.607,-0.266C0.607,-0.213 0.595,-0.165 0.57,-0.124C0.545,-0.083 0.511,-0.05 0.469,-0.026C0.426,-0.002 0.376,0.01 0.321,0.01ZM0.321,-0.128C0.345,-0.128 0.366,-0.134 0.385,-0.146C0.404,-0.158 0.418,-0.174 0.429,-0.195C0.44,-0.216 0.445,-0.239 0.444,-0.266C0.445,-0.293 0.44,-0.317 0.429,-0.338C0.418,-0.359 0.404,-0.375 0.385,-0.387C0.366,-0.399 0.345,-0.405 0.321,-0.405C0.297,-0.405 0.276,-0.399 0.257,-0.387C0.238,-0.375 0.223,-0.359 0.212,-0.338C0.201,-0.317 0.196,-0.293 0.197,-0.266C0.196,-0.239 0.201,-0.216 0.212,-0.195C0.223,-0.174 0.238,-0.158 0.257,-0.146C0.276,-0.134 0.297,-0.128 0.321,-0.128Z" style="fill-rule:nonzero;"/>
                </g>
                <g transform="matrix(326.381,0,0,517.392,1648.82,1272.9)">
                    <path d="M0.071,-0L0.071,-0.531L0.223,-0.531L0.228,-0.423L0.196,-0.411C0.203,-0.435 0.217,-0.457 0.236,-0.477C0.255,-0.496 0.277,-0.512 0.304,-0.524C0.331,-0.536 0.359,-0.542 0.388,-0.542C0.428,-0.542 0.462,-0.534 0.489,-0.518C0.516,-0.501 0.537,-0.477 0.551,-0.445C0.565,-0.412 0.572,-0.373 0.572,-0.326L0.572,-0L0.411,-0L0.411,-0.313C0.411,-0.334 0.408,-0.352 0.402,-0.366C0.396,-0.38 0.387,-0.391 0.375,-0.398C0.362,-0.405 0.347,-0.408 0.329,-0.407C0.315,-0.407 0.302,-0.405 0.29,-0.401C0.278,-0.396 0.268,-0.39 0.259,-0.382C0.25,-0.373 0.244,-0.364 0.239,-0.353C0.234,-0.342 0.231,-0.331 0.231,-0.318L0.231,-0L0.071,-0Z" style="fill-rule:nonzero;"/>
                </g>
                <g transform="matrix(326.381,0,0,517.392,1852.44,1272.9)">
                    <path d="M0.138,0.23L0.259,-0.055L0.261,0.027L0.005,-0.531L0.186,-0.531L0.298,-0.264C0.304,-0.251 0.31,-0.236 0.315,-0.221C0.32,-0.206 0.324,-0.191 0.327,-0.177L0.305,-0.164C0.309,-0.174 0.314,-0.187 0.319,-0.202C0.324,-0.217 0.329,-0.233 0.335,-0.25L0.433,-0.531L0.615,-0.531L0.389,-0L0.297,0.23L0.138,0.23Z" style="fill-rule:nonzero;"/>
                </g>
            </g>
        </g>
    </g>
</svg>
